<?xml version="1.0" encoding="utf-8"?>
<!-- Generator: Adobe Illustrator 27.9.0, SVG Export Plug-In . SVG Version: 6.00 Build 0)  -->
<svg version="1.1" id="Layer_1" xmlns="http://www.w3.org/2000/svg" xmlns:xlink="http://www.w3.org/1999/xlink" x="0px" y="0px"
	 viewBox="0 0 612 792" style="enable-background:new 0 0 612 792;" xml:space="preserve">
<style type="text/css">
	.st0{fill:#010101;stroke:#010101;stroke-miterlimit:10;}
	.st1{fill:#010101;}
</style>
<g>
	<path class="st0" d="M69.2,406.9c-0.7-0.5-0.8-2,0-3.6c1.9-1.7,3.8-3.5,5.7-5.2c-0.1-0.4-1.2-3.5,0.5-6.3c1-1.6,2.5-2.3,3.1-2.6
		c-0.5-0.5-1-1-1.6-1.6c0.7-0.4,1.6-1.1,2.6-2.1c1.8-1.7,2.7-3.4,4.7-7.3c2.9-5.7,2.4-5.3,3.1-6.3c1.8-2.5,3.9-3.8,6.8-5.7
		c3.3-2.2,3.8-1.9,7.3-4.2c3.6-2.3,3.4-2.9,5.7-4.2c3.1-1.7,5.8-2.1,9.4-2.6c5.5-0.8,8.2-1.2,11.5,0c3,1.1,6.4,2.3,8.3,4.2
		c0.2,0.2,1,1,2.1,1c0.9,0,1.7-0.6,2.1-1c2.1-2,3.7-3.7,4.2-4.2c2.6-2.6,6.5-2.6,8.3-2.6c1.7,0,5.8,0,8.3,2.6
		c1.2,1.2,0.9,1.9,2.1,2.6c1.8,1.2,3.4,0.3,7.3,0c2.3-0.2,5.1-0.4,8.3,0.5c1.7,0.5,4.5,1.3,5.7,3.6c0.8,1.4,0.2,2,1,3.1
		c1.3,1.6,3.8,2.3,5.2,2.6c1.4,0.3,2.4,0.4,2.6,1c0.2,0.5-0.2,1.2-0.5,1.6c-0.7,0.7-1.7,0.5-2.1,0.5c-1.6-0.1-4.7,0.1-10.2,0.8
		c0.2-0.7,0.4-1.6,0-2.6c-0.5-1.3-1.7-1.4-3.1-2.6c-3-2.4-2.7-5.5-4.7-5.7c-0.6-0.1-1.2,0.1-1.6,0.5c-0.5,0.7,0,1.9,0.5,2.6
		c0.5,0.7,0.9,0.6,1,1c0.3,0.9-1.3,1.7-1.6,3.1c-0.1,0.7-0.1,1.7,1,3.1c-0.5,0-1,0-1.6,0c-11-4.5-14.8-6.7-15.6-7.8
		c-0.1-0.2-0.8-1.1-1.6-1c-0.5,0.1-1,0.5-1,1c0,0.5,0.4,0.9,0.5,1c1.5,1.5,0.1,6.7,0,7.3c-0.8,3-1.6,6.2-4.7,8.9
		c-2.7,2.3-5.7,2.9-7.3,3.1c0.2,1.4,0.5,3.6,0.5,6.3c0.1,2.9-0.2,2.8,0,3.6c0.8,4.3,6.5,6.8,9.9,8.3c2.4,1.1,4.2,1.9,6.8,2.1
		c5.5,0.5,9.8-2,11.5-3.1c0.3,0,0.7,0,1,0c0,0.5,0,1.4-0.5,2.1c-0.8,1.1-2.3,0.9-3.6,1.6c-1,0.5-2.2,1.5-3.1,4.2c-2.4,0-4.9,0-7.3,0
		c-0.3,1.1-0.9,2.6-1.6,2.6c-0.9,0-1-2.2-2.6-4.2c-1.8-2.2-3.6-2-7.8-4.2c-1.4-0.7-3.4-1.8-5.7-3.6c-1.5-0.5-4.2-1.2-7.3-0.5
		c-2.6,0.5-4.5,1.8-5.7,2.6c-1.8,1.2-2.6,2.2-3.6,3.1c-3.7,3.4-7.9,4.7-9.4,5.2c-5,1.6-9.5,1.1-12.5,0.5c0.3,0.8,0.8,1.3,1,1.6
		c2.2,2.2,6.6,2.5,7.3,2.6c0.6,0.1,1.3,0.1,1.6,0.5c0.3,0.5-0.2,1.6-1,2.1c-1.3,0.8-2.9-0.3-3.6,0.5c-0.4,0.4-0.1,0.8-0.5,1
		c-0.6,0.4-1.3-0.6-2.6-0.5c-0.7,0-0.7,0.3-2.6,1c-1.1,0.4-1.7,0.7-2.1,0.5c-0.4-0.1-0.9-0.6-1-3.6c-0.2-4.3,1-5.7,0-6.8
		c-0.6-0.7-1.8-0.8-4.2-1c-1.5-0.2-2.2-0.2-3.1,0c-1.3,0.3-1.7,0.9-3.6,2.1c-0.7,0.4-1.8,1-3.1,1.6c-1-1.2-2.1-2.4-3.1-3.6
		c0-0.3,0-0.7,0-1c0.4-0.7,0.9-1.4,1.6-2.1c2.6-2.9,5.9-4.2,7.8-4.7c-0.2-1.4-0.3-2.8-0.5-4.2c-1.3,0.4-4.3,1.4-7.8,2.6
		c-0.5,0.2-1.1,0.4-1.6,1c-0.6,0.9-0.1,1.8-0.5,2.6c-0.3,0.6-1.2,1.1-3.6,1c-0.4,0.8-1.4,2.4-3.1,3.1
		C71,406.9,69.9,407.4,69.2,406.9z"/>
	<g>
		<g>
			<path class="st1" d="M217.8,368c-0.3-1-0.5-1.6-1.1-2.3c-0.4-0.5-0.7-0.6-2-0.6h-2v12.2c0,2.1,0.2,2.3,2.2,2.6v0.4h-7.2v-0.4
				c1.8-0.4,2.1-0.5,2.1-2.6v-12.2h-2.2c-1.1,0-1.3,0.3-1.7,0.6c-0.4,0.5-0.8,1.4-1.1,2.3h-0.4c0.1-1.3,0.2-3,0.3-4.2h0.3
				c0.4,0.5,0.8,0.5,1.5,0.5h9.8c0.6,0,1-0.1,1.5-0.5h0.3c0,1.1,0,2.9,0.1,4.1L217.8,368z"/>
			<path class="st1" d="M225.5,380.3v-0.4c1.2-0.3,1.3-0.4,1.3-1.9v-4.6c0-1.7-0.8-2.4-1.8-2.4c-0.6,0-1.2,0.2-1.7,0.6v6.3
				c0,1.5,0,1.6,1.3,1.9v0.4h-5.5v-0.4c1.3-0.2,1.4-0.4,1.4-2v-11.5c0-1.9-0.1-2-1.3-2.3v-0.3c1.3-0.1,3.2-0.5,4.2-0.8
				c0,0.2-0.1,1.5-0.1,3.2v5.1c0.8-0.8,1.9-1.6,3.2-1.6c1.9,0,3.1,1.1,3.1,3.8v4.4c0,1.6,0,1.8,1.2,2v0.4H225.5z"/>
			<path class="st1" d="M241.2,377.8c-1.5,2.1-3.3,2.7-4.2,2.7c-3.1,0-4.9-2.4-4.9-5.1c0-1.8,0.7-3.3,1.7-4.3
				c1.1-1.2,2.3-1.5,3.5-1.5c2.3,0,3.8,1.7,3.8,3.6c0,0.4,0,0.5-0.1,0.6c-0.8,0.1-3.9,0.4-6.2,0.5c0,3,1.7,4.4,3.4,4.4
				c0.9,0,1.8-0.2,2.7-1.1L241.2,377.8z M236.6,370.2c-0.9,0-1.6,1-1.7,3.3c1,0,1.9,0,2.9-0.1c0.4,0,0.6,0,0.6-0.3
				C238.4,371.7,237.7,370.2,236.6,370.2z"/>
			<path class="st1" d="M233.3,405.3c-2.3,0.5-2.8,0.8-2.8,2.9v3.6c0,1.4,0.1,2.7,0.3,3.7c-2.5,0.4-6.7,1.3-10.1,1.3
				c-10,0-15.4-5.3-15.4-12.8c0-8.9,7.6-13.3,16.4-13.3c4.2,0,7.3,0.7,8.5,0.7c0.1,1.7,0.2,3.7,0.5,6l-0.7,0.1
				c-0.6-2.2-1.8-4.4-4.7-5.3c-1.4-0.4-2.9-0.6-4.5-0.6c-5.7,0-9.3,4-9.3,11.4c0,6.9,2.3,12.9,9.5,12.9c0.9,0,2.4-0.2,3.2-0.6
				c0.6-0.3,1.1-0.8,1.1-2.7v-3.9c0-2.5-0.4-2.9-3.8-3.4v-0.6h12V405.3z"/>
			<path class="st1" d="M248.2,416.7c-1.1,0-1.9-0.3-2.4-0.8c-0.5-0.4-0.8-1-1-1.7c-1.4,1-3.6,2.5-4.4,2.5c-3.1,0-5.1-2.3-5.1-4.6
				c0-1.8,0.9-2.7,2.9-3.4c2.3-0.8,5.5-1.5,6.5-2.2v-2.3c0-2.4-1.6-3.5-2.9-3.5c-0.8,0-1.3,0.3-1.8,0.8c-0.3,0.4-0.6,1.1-1,2.5
				c-0.2,0.8-0.5,1-1.1,1c-1.4,0-2.2-1-2.2-1.8c0-0.4,0.4-0.9,1.3-1.4c2.2-1.2,4.9-2.4,6.5-2.6c1.9,0,2.9,0.5,3.8,1.1
				c1.8,1.2,2.2,2.8,2.2,5v6.6c0,1.6,0.6,2.1,1.4,2.1c0.3,0,0.7,0,1-0.2l0.2,0.6L248.2,416.7z M244.7,407.4
				c-0.6,0.3-1.3,0.5-2.2,0.9c-1.6,0.8-2.3,1.5-2.3,2.8c0,2.1,1.3,3,2.5,3c0.6,0,1.3-0.1,2-0.6C244.7,411.3,244.7,409.6,244.7,407.4
				z"/>
			<path class="st1" d="M253.2,416.2v-0.6c2.3-0.3,2.4-0.5,2.4-3.5v-18.4c0-2.4-0.1-2.6-2.3-3.1v-0.5c2.2-0.2,5-0.6,7.4-1.3
				c0,0.6-0.2,2-0.2,5.3v18c0,3,0.1,3.1,2.3,3.5v0.6H253.2z"/>
			<path class="st1" d="M264.3,416.2v-0.6c2.3-0.3,2.4-0.5,2.4-3.5v-18.4c0-2.4-0.1-2.6-2.3-3.1v-0.5c2.2-0.2,5-0.6,7.4-1.3
				c0,0.6-0.2,2-0.2,5.3v18c0,3,0.1,3.1,2.3,3.5v0.6H264.3z"/>
			<path class="st1" d="M285.7,399.4c5.6,0,9.3,4,9.3,8.4c0,5.9-4.7,8.9-9.2,8.9c-7,0-9.8-4.6-9.8-8.5
				C276,402.8,280.9,399.4,285.7,399.4z M285.1,400.3c-2.2,0-3.4,2.2-3.4,6.7c0,5.1,1.6,8.8,4.3,8.8c1.7,0,3.4-1,3.4-7.1
				C289.4,403.4,287.7,400.3,285.1,400.3z"/>
			<path class="st1" d="M297.2,400.8c2.7-0.3,4.8-0.9,7.2-1.7c0,1-0.1,1.9-0.1,2.8c0.7-0.4,2.3-1.3,2.9-1.6c1.2-0.7,2-0.8,2.6-0.8
				c4.5,0,7.1,3.7,7.1,7.2c0,5.2-5.1,8.9-10,10c-1,0-1.9-0.2-2.6-0.4v5.6c0,2.9,0.3,3,3.1,3.5v0.6h-10.5v-0.6
				c2.4-0.5,2.5-0.7,2.5-3.5v-17.1c0-2.8-0.3-2.9-2.2-3.5V400.8z M304.3,413.9c0.9,0.7,2.6,1.2,4,1.2c3.2,0,3.5-3.1,3.5-6.1
				c0-4.9-2.3-7.1-4.7-7.1c-1.2,0-1.9,0.2-2.9,0.8V413.9z"/>
			<path class="st1" d="M319.2,416.2v-0.6c2.3-0.3,2.4-0.5,2.4-3.5v-7.8c0-2.2-0.1-2.4-1.9-2.9v-0.5c2.5-0.3,4.9-0.7,6.9-1.4
				c0,0.8-0.1,3-0.1,4.5v8.1c0,2.9,0.2,3.1,2.5,3.5v0.6H319.2z M323.7,396.1c-1.4,0-2.6-1-2.6-2.4c0-1.4,1.2-2.4,2.6-2.4
				c1.6,0,2.7,1,2.7,2.4C326.4,395.1,325.3,396.1,323.7,396.1z"/>
			<path class="st1" d="M341.9,416.2v-0.6c2.1-0.3,2.2-0.6,2.2-3.9v-6.2c0-2.8-1.4-3.6-2.9-3.6c-1.1,0-2.2,0.3-3.3,1.1v9.4
				c0,2.7,0.2,2.7,2.2,3.2v0.6h-9.7v-0.6c2.2-0.5,2.5-0.7,2.5-3.5v-8c0-1.9-0.3-2.2-2-2.7v-0.5c2.5-0.3,5.1-0.9,7-1.5
				c0,0.9-0.1,1.9-0.1,2.8c1-0.6,1.7-1.1,2.5-1.6c1.3-0.8,2.1-1.2,3.3-1.2c3.6,0,5.3,2.4,5.3,5.9v7.1c0,2.7,0.2,2.9,2.1,3.2v0.6
				H341.9z"/>
			<path class="st1" d="M358.7,411.2c-0.6,0.6-0.7,1.2-0.7,1.5c0,0.7,0.7,1.6,2.6,1.6c1.2,0,2.8,0,4.6,0c3.2,0,6.3,1.3,6.3,4.6
				c0,4.2-5.3,7.8-11,7.8c-5.2,0-7.6-2.6-7.6-4.7c0-0.8,0.4-1.3,1.3-2c0.7-0.5,1.9-1.2,3.5-2c-1.9-0.6-2.9-1.4-3.5-2.2
				c-0.4-0.6-0.6-1.5-0.6-2c1.2-0.7,3.4-1.9,4.3-2.9L358.7,411.2z M361.2,411.6c-4.2,0-7.4-2.4-7.4-5.8c0-4.1,4.2-6.4,7.8-6.4
				c1.5,0,2.8,0.3,4.3,1c1,0.2,4.2-0.2,5.9-0.8l0.1,0.1c-0.3,0.8-1.2,2-1.6,2.3c-0.6,0-2.1,0-2.8-0.1c0.8,0.9,1.3,2.1,1.3,3.5
				C368.8,409.5,364.9,411.6,361.2,411.6z M361.4,418c-1.7,0-2.5,0.1-2.8,0.3c-1.2,0.7-1.9,1.6-1.9,2.8c0,2.1,2.2,4.1,6.1,4.1
				c4.1,0,5.2-1.7,5.2-3.7c0-1.6-1.1-2.5-2.4-3C364.5,418.1,363.4,418,361.4,418z M361,400.3c-1.5,0-2.5,1.8-2.5,4.7
				c0,3.4,1,5.7,3,5.7c1.5,0,2.5-1.6,2.5-5C364,402.8,363,400.3,361,400.3z"/>
			<path class="st1" d="M408.3,405.3c-2.3,0.5-2.8,0.8-2.8,2.9v3.6c0,1.4,0.1,2.7,0.3,3.7c-2.5,0.4-6.7,1.3-10.1,1.3
				c-10,0-15.4-5.3-15.4-12.8c0-8.9,7.6-13.3,16.4-13.3c4.2,0,7.3,0.7,8.5,0.7c0.1,1.7,0.2,3.7,0.5,6l-0.7,0.1
				c-0.6-2.2-1.8-4.4-4.7-5.3c-1.4-0.4-2.8-0.6-4.5-0.6c-5.7,0-9.3,4-9.3,11.4c0,6.9,2.3,12.9,9.5,12.9c0.9,0,2.4-0.2,3.2-0.6
				c0.6-0.3,1.1-0.8,1.1-2.7v-3.9c0-2.5-0.4-2.9-3.8-3.4v-0.6h12V405.3z"/>
			<path class="st1" d="M420,399.4c5.6,0,9.3,4,9.3,8.4c0,5.9-4.7,8.9-9.2,8.9c-7,0-9.8-4.6-9.8-8.5
				C410.3,402.8,415.2,399.4,420,399.4z M419.4,400.3c-2.2,0-3.4,2.2-3.4,6.7c0,5.1,1.6,8.8,4.3,8.8c1.7,0,3.4-1,3.4-7.1
				C423.6,403.4,421.9,400.3,419.4,400.3z"/>
			<path class="st1" d="M441.4,399.4c5.6,0,9.3,4,9.3,8.4c0,5.9-4.7,8.9-9.2,8.9c-7,0-9.8-4.6-9.8-8.5
				C431.8,402.8,436.6,399.4,441.4,399.4z M440.8,400.3c-2.2,0-3.4,2.2-3.4,6.7c0,5.1,1.6,8.8,4.3,8.8c1.7,0,3.4-1,3.4-7.1
				C445.1,403.4,443.4,400.3,440.8,400.3z"/>
			<path class="st1" d="M464.5,404.1c-0.9-2.2-2.2-3.9-4.6-3.9c-1.3,0-2.4,0.8-2.4,2.3c0,1.7,1.3,2.4,3.1,3.3
				c3.1,1.5,5.3,2.7,5.3,5.4c0,3.7-3.9,5.4-7.1,5.4c-2.2,0-3.9-0.5-4.8-0.8c-0.1-0.8-0.4-3-0.6-4.5l0.6-0.1c1,2.5,2.8,4.6,5.5,4.6
				c1.6,0,2.5-1,2.5-2.3c0-1.2-0.4-2.2-3.2-3.7c-1.7-0.9-4.9-2.4-4.9-5.4c0-3,2.6-5.1,6.8-5.1c1.8,0,3.3,0.4,4.1,0.4
				c0.1,1.3,0.3,3.5,0.5,4.2L464.5,404.1z"/>
			<path class="st1" d="M484.4,412.4c-2.6,3.3-5.9,4.3-7.4,4.3c-5.4,0-8.6-3.8-8.6-8c0-2.8,1.3-5.1,3.1-6.8c1.9-1.8,4.1-2.4,6.1-2.4
				c4.1,0,6.7,2.7,6.8,5.7c0,0.6,0,0.8-0.2,0.9c-1.4,0.2-6.9,0.6-10.9,0.7c0,4.7,3.1,6.9,6,6.9c1.6,0,3.1-0.3,4.8-1.8L484.4,412.4z
				 M476.4,400.4c-1.6,0-2.8,1.5-3.1,5.2c1.7,0,3.4,0,5.1-0.1c0.6,0,1-0.1,1-0.5C479.5,402.7,478.2,400.4,476.4,400.4z"/>
		</g>
	</g>
</g>
</svg>
