<?xml version="1.0" encoding="UTF-8"?><svg id="a" xmlns="http://www.w3.org/2000/svg" viewBox="0 0 576.47 298.21"><defs><style>.b{letter-spacing:0em;}.c{letter-spacing:-.03em;}.d{font-size:167.62px;}.d,.e,.f{font-family:Helvetica-Bold, Helvetica;font-weight:700;}.d,.e,.f,.g{fill:#fff;}.e{font-size:50.94px;letter-spacing:-.01em;}.f{font-size:49.3px;}.h{letter-spacing:-.05em;}.i{letter-spacing:-.01em;}.g{stroke-width:0px;}</style></defs><text class="d" transform="translate(182.72 188.08) scale(1 1.09)"><tspan class="h" x="0" y="0">T</tspan><tspan class="b" x="93.22" y="0">ree</tspan></text><text class="e" transform="translate(196.13 249.21)"><tspan x="0" y="0" xml:space="preserve">  </tspan></text><text class="f" transform="translate(213.81 237.42) scale(1 1.05)"><tspan class="c" x="0" y="0">P</tspan><tspan class="i" x="31.35" y="0">hotography</tspan></text><path class="g" d="m139.07,79.26c2.42-6.43,3.76-13.39,3.76-20.66C142.83,26.24,116.6,0,84.23,0S25.63,26.24,25.63,58.6c0,6.94,1.21,13.59,3.43,19.76C12.24,83.48,0,99.11,0,117.6c0,22.65,18.36,41,41,41,2.09,0,4.15-.16,6.16-.46l-20.02-18.61c-1.47-1.37-1.56-3.67-.19-5.15h0c1.37-1.47,3.67-1.56,5.15-.19l23.4,21.76c8.99-3.4,16.47-9.88,21.17-18.14v-60.25c0-2.09,1.63-3.78,3.64-3.78h4.86c2.01,0,3.64,1.69,3.64,3.78v63.66c1.77,2.78,3.85,5.33,6.2,7.62l36.57-36.57c1.42-1.42,3.73-1.42,5.15,0s1.42,3.73,0,5.15l-36.05,36.05c6.74,4.58,14.87,7.27,23.64,7.27,23.23,0,42.07-18.83,42.07-42.07,0-18.04-11.36-33.42-27.31-39.4Z"/><path class="g" d="m88.81,155.03v-13.82c-4.15-6.52-6.56-14.25-6.56-22.55,0-.51.02-1.01.04-1.51-.1,0-.19,0-.29,0,0,.15.01.3.01.45,0,7.35-1.94,14.24-5.33,20.21v37.83l-21.17-19.68c-2.66,1.01-5.45,1.75-8.34,2.19l29.44,27.37s.05.04.07.06v36.86c0,2.09,1.63,3.78,3.64,3.78h4.86c2.01,0,3.64-1.69,3.64-3.78v-57.11s.01,0,.02-.02l11.85-11.85c-2.02-1.38-3.92-2.93-5.67-4.63l-6.2,6.2Z"/></svg>